Coordinates
version=1
nRows=24
nColumns=24
inDegrees=yes

Units are S.I. units (second, meters, Newtons, ...)
Angles are in degrees.

endheader
time	pelvis_tilt	pelvis_list	pelvis_rotation	pelvis_tx	pelvis_ty	pelvis_tz	hip_flexion_r	hip_adduction_r	hip_rotation_r	knee_angle_r	ankle_angle_r	subtalar_angle_r	mtp_angle_r	hip_flexion_l	hip_adduction_l	hip_rotation_l	knee_angle_l	ankle_angle_l	subtalar_angle_l	mtp_angle_l	lumbar_extension	lumbar_bending	lumbar_rotation
      5.15000000	      0.97367548	      2.77708596	    -11.42315818	      0.60841652	      0.70575716	     -0.42283191	     22.00535294	      0.64258771	      2.07193821	    -64.27961859	     10.99412322	     -9.34276429	      0.00000000	     -1.69080109	      9.69976262	     23.07250491	     -3.59657345	      1.93995734	    -29.74916888	      0.00000000	    -19.39373487	     -3.09105351	     -1.49054284
      5.16000000	      0.65450644	      2.46275240	    -10.94535953	      0.61916466	      0.70584430	     -0.42202854	     23.71109180	      1.03056599	      1.46983690	    -62.72551922	     11.82752903	     -9.41049535	      0.00000000	     -2.81825958	      9.23169044	     23.78608637	     -2.81009743	      1.95255405	    -30.32473409	      0.00000000	    -19.35327083	     -2.60825757	     -1.93826932
      5.17000000	      0.40711008	      2.19590039	    -10.47175895	      0.62989437	      0.70575048	     -0.42114939	     25.24340804	      1.34322064	      0.93847417	    -60.86723865	     12.45053244	     -9.23122992	      0.00000000	     -4.01499028	      8.79913203	     24.62928743	     -1.99833240	      1.71377065	    -31.28658716	      0.00000000	    -19.39777985	     -2.22158142	     -2.56911955
      5.18000000	      0.18662098	      1.98241411	    -10.08527935	      0.64064918	      0.70547194	     -0.42010382	     26.60271203	      1.62537514	      0.55570019	    -58.62835000	     13.01351474	     -8.86806462	      0.00000000	     -5.16363211	      8.43883216	     25.18687845	     -1.30849774	      1.70057532	    -31.89644473	      0.00000000	    -19.43802199	     -1.93986295	     -2.98251618
      5.19000000	     -0.09032950	      1.84902252	     -9.81054176	      0.65140994	      0.70492413	     -0.41890144	     27.88818476	      1.89333583	      0.39785210	    -56.03131820	     13.42631542	     -8.36937163	      0.00000000	     -6.16433821	      8.18395460	     25.37884014	     -0.75017134	      1.93609201	    -32.08733790	      0.00000000	    -19.36420716	     -1.77959315	     -3.25764321
      5.20000000	     -0.34199269	      1.73611343	     -9.44491696	      0.66225730	      0.70425824	     -0.41778020	     28.93931222	      2.07583395	      0.22059295	    -53.02865000	     13.71119116	     -7.77956297	      0.00000000	     -7.15647650	      7.94666116	     25.71739687	     -0.27693407	      2.17392360	    -32.28920385	      0.00000000	    -19.29674143	     -1.63380099	     -3.70690964
      5.21000000	     -0.45614429	      1.62059764	     -8.95859095	      0.67314946	      0.70362693	     -0.41675878	     29.59941821	      2.15484549	     -0.04927484	    -49.56431919	     13.90156886	     -7.34221268	      0.00000000	     -8.28222859	      7.69266189	     26.30120051	      0.15799839	      2.32589176	    -32.59056504	      0.00000000	    -19.39196079	     -1.49643921	     -4.29494484
      5.22000000	     -0.62460798	      1.52716471	     -8.62439118	      0.68409693	      0.70281012	     -0.41558180	     30.09139145	      2.30970934	     -0.01019119	    -45.66327420	     13.92941854	     -6.95873648	      0.00000000	     -9.30149923	      7.48863578	     26.58926217	      0.50540104	      2.51984299	    -32.77081102	      0.00000000	    -19.38974414	     -1.39966966	     -4.74136536
      5.23000000	     -0.91556119	      1.49074625	     -8.34635459	      0.69510158	      0.70172330	     -0.41441622	     30.48817980	      2.42300113	      0.15490842	    -41.34347228	     13.86286023	     -6.60815549	      0.00000000	    -10.11359552	      7.36480533	     26.72778806	      0.71531162	      2.77532498	    -32.79009153	      0.00000000	    -19.23250423	     -1.33603093	     -5.13481147
      5.24000000	     -1.11134484	      1.43949672	     -7.96901938	      0.70629412	      0.70067497	     -0.41332622	     30.46220371	      2.47777463	      0.30423745	    -36.51938715	     13.59176251	     -6.64359015	      0.00000000	    -11.00391814	      7.22076060	     26.97585603	      0.83795101	      3.14026343	    -32.65224156	      0.00000000	    -19.12999070	     -1.24933159	     -5.63532691
      5.25000000	     -1.23841392	      1.45764271	     -7.60529148	      0.71762403	      0.69954786	     -0.41221162	     30.11346082	      2.44545636	      0.58752933	    -31.31974390	     13.20118214	     -6.86644222	      0.00000000	    -11.91855622	      7.17018074	     27.17427490	      0.85816690	      3.53712293	    -32.37768448	      0.00000000	    -19.07735975	     -1.25489345	     -6.16828502
      5.26000000	     -0.98862934	      1.46089706	     -7.34989758	      0.72918211	      0.69870268	     -0.41095169	     29.10158289	      2.40404120	      1.01217527	    -25.78857256	     12.68339381	     -7.27293541	      0.00000000	    -13.23591752	      7.17863431	     27.08678598	      0.82397523	      4.05288433	    -31.73887392	      0.00000000	    -19.48405392	     -1.32151629	     -6.61608885
      5.27000000	     -1.01926485	      1.64116114	     -7.00735675	      0.74107829	      0.69729180	     -0.40980517	     28.27422383	      2.14671669	      1.38353375	    -20.21239862	     12.01720246	     -7.71877736	      0.00000000	    -14.18610831	      7.32634181	     27.18498882	      0.64702748	      4.56273004	    -31.09669715	      0.00000000	    -19.41680985	     -1.50863194	     -7.16424763
      5.28000000	     -1.08866496	      2.03328668	     -6.54064509	      0.75319337	      0.69558503	     -0.40887774	     27.48292213	      1.58292932	      1.49124996	    -14.83850483	     11.44317470	     -7.90592456	      0.00000000	    -14.99684158	      7.67956129	     27.60047747	      0.26795385	      5.02486359	    -30.49506027	      0.00000000	    -19.22404701	     -1.87862631	     -7.86567596
      5.29000000	     -0.85205133	      2.30902766	     -6.24183064	      0.76580703	      0.69410892	     -0.40758346	     26.25445693	      1.19130610	      1.68374989	     -9.70451388	     10.69769480	     -8.02927959	      0.00000000	    -16.23105986	      7.92995291	     27.65306360	     -0.03991491	      5.62677715	    -29.39903303	      0.00000000	    -19.35865653	     -2.20222115	     -8.40488870
      5.30000000	     -0.72298611	      2.78551863	     -5.91933529	      0.77855877	      0.69234599	     -0.40633868	     25.31818626	      0.61544378	      1.54194264	     -5.29992077	     10.28735709	     -7.56039338	      0.00000000	    -17.24129382	      8.38406528	     27.87917332	     -0.55839250	      6.10284690	    -28.35500437	      0.00000000	    -19.32136911	     -2.71972228	     -9.01872865
      5.31000000	     -0.53177079	      3.20250458	     -5.67732473	      0.79160411	      0.69066450	     -0.40488278	     24.42944175	      0.18336542	      1.30133900	     -1.67361724	     10.08839403	     -6.80936356	      0.00000000	    -18.31077314	      8.77403559	     27.97718315	     -1.15217458	      6.58428810	    -27.04688150	      0.00000000	    -19.33439419	     -3.19664104	     -9.54051563
      5.32000000	     -0.34015292	      3.53271236	     -5.50985674	      0.80489565	      0.68908578	     -0.40326713	     23.68546351	     -0.07812572	      1.13135548	      1.06267922	     10.09070934	     -5.99628671	      0.00000000	    -19.34398626	      9.08203033	     27.87329945	     -1.85405467	      7.08590220	    -25.42297956	      0.00000000	    -19.34150253	     -3.57468845	     -9.97525154
      5.33000000	     -0.17652941	      3.73820327	     -5.46154693	      0.81842270	      0.68762949	     -0.40149055	     23.12989429	     -0.13193633	      1.21567597	      2.85332642	     10.26375645	     -5.33377840	      0.00000000	    -20.26906717	      9.30839078	     27.35915237	     -2.72901099	      7.71102094	    -23.28459801	      0.00000000	    -19.31482834	     -3.79715646	    -10.24520583
      5.34000000	     -0.09611276	      3.83844807	     -5.49061674	      0.83217345	      0.68629076	     -0.39962156	     22.82325656	     -0.01643056	      1.54451600	      3.70890655	     10.49269486	     -5.06611092	      0.00000000	    -21.01873266	      9.45272937	     26.56238092	     -3.76389724	      8.21861112	    -20.86165992	      0.00000000	    -19.16910386	     -3.88382077	    -10.42092617
      5.35000000	     -0.00343211	      3.83783738	     -5.64182050	      0.84607466	      0.68517906	     -0.39762243	     22.67216658	      0.26072562	      2.15167387	      3.65357452	     10.81333912	     -5.10313626	      0.00000000	    -21.64369821	      9.55911243	     25.37095586	     -5.02505289	      8.56076401	    -18.15252437	      0.00000000	    -19.07689684	     -3.85606239	    -10.39078186
      5.36000000	     -0.10806617	      3.56368475	     -5.76799137	      0.86049379	      0.68415073	     -0.39558915	     22.80309156	      0.87421775	      2.62835286	      2.81105461	     10.96681115	     -5.54396001	      0.00000000	    -21.92649097	      9.36854238	     23.60092933	     -6.55495482	      9.08993056	    -14.67311205	      0.00000000	    -18.66043731	     -3.42244419	    -10.34074538
      5.37000000	     -0.24205467	      3.37488379	     -5.83237494	      0.87483376	      0.68337772	     -0.39365601	     23.12131156	      1.37925228	      3.24353333	      1.25999994	     11.09897311	     -6.02657715	      0.00000000	    -21.78650751	      9.27858129	     21.30269213	     -8.66623370	      9.47675017	    -10.54398369	      0.00000000	    -18.29643237	     -3.05524233	    -10.46757688
      5.38000000	     -0.37781603	      3.08474891	     -5.97532930	      0.88929649	      0.68284644	     -0.39155731	     23.57699931	      2.06501161	      3.68265941	     -0.90475814	     11.01587674	     -6.55253090	      0.00000000	    -21.35943192	      9.06538206	     18.54651445	    -11.17567690	      9.50507146	     -6.19015836	      0.00000000	    -17.94373694	     -2.58578757	    -10.40382782
